<svg width="23" height="23" viewBox="0 0 23 23" fill="none" xmlns="http://www.w3.org/2000/svg">
<path d="M0.5 10.6015V11.0808C0.499915 13.0626 1.03407 15.0078 2.04624 16.7116C3.05842 18.4154 4.51118 19.8149 6.25164 20.7627V22.1047H15.8377V20.7627C17.5782 19.8149 19.0309 18.4154 20.0431 16.7116C21.0553 15.0078 21.5894 13.0626 21.5893 11.0808V10.6015H0.5Z" stroke="#5051F9" stroke-miterlimit="10"/>
<path d="M18.4319 6.22787L21.811 1.62656" stroke="#5051F9" stroke-miterlimit="10"/>
<path d="M17.2037 5.38908L18.3361 0.104767" stroke="#5051F9" stroke-miterlimit="10"/>
<path d="M2.05771 10.6015C1.79132 9.30592 1.96116 7.9586 2.54073 6.76964C3.12031 5.58069 4.07704 4.61695 5.26173 4.0287C6.44642 3.44046 7.79247 3.26079 9.08997 3.51771C10.3875 3.77463 11.5635 4.45369 12.4346 5.44901" stroke="#5051F9" stroke-miterlimit="10"/>
<path d="M4.03481 10.6015C3.76298 9.71909 3.79894 8.77052 4.13681 7.91124C4.47468 7.05195 5.09442 6.33292 5.89446 5.87197C6.69449 5.41103 7.62738 5.23552 8.54023 5.37419C9.45308 5.51287 10.2918 5.95752 10.9188 6.63526" stroke="#5051F9" stroke-miterlimit="10"/>
<path d="M6.13776 10.6015C5.97168 10.3557 5.8581 10.0782 5.8041 9.78655C5.7501 9.49486 5.75686 9.19516 5.82394 8.90619C5.89103 8.61722 6.017 8.3452 6.19399 8.10713C6.37098 7.86906 6.59517 7.67006 6.85256 7.52257C7.10995 7.37508 7.395 7.28227 7.68988 7.24994C7.98477 7.21761 8.28315 7.24646 8.56638 7.33468C8.84961 7.42291 9.11159 7.56861 9.33596 7.76268C9.56032 7.95675 9.74224 8.19501 9.87034 8.46258" stroke="#5051F9" stroke-miterlimit="10"/>
<path d="M16.2271 10.6015C16.3062 10.3843 16.3318 10.1511 16.3017 9.92192C16.2716 9.69269 16.1866 9.47411 16.054 9.2847C15.9214 9.0953 15.7451 8.94065 15.5401 8.83388C15.335 8.72711 15.1072 8.67136 14.876 8.67136C14.6448 8.67136 14.417 8.72711 14.212 8.83388C14.0069 8.94065 13.8306 9.0953 13.698 9.2847C13.5654 9.47411 13.4805 9.69269 13.4504 9.92192C13.4202 10.1511 13.4458 10.3843 13.525 10.6015" stroke="#5051F9" stroke-miterlimit="10"/>
<path d="M18.1983 10.6015C18.2718 10.1234 18.241 9.63509 18.1081 9.17001C17.9752 8.70492 17.7433 8.27407 17.4284 7.90699C17.1134 7.5399 16.7228 7.24525 16.2833 7.04325C15.8438 6.84125 15.3658 6.73666 14.8821 6.73666C14.3984 6.73666 13.9204 6.84125 13.4809 7.04325C13.0414 7.24525 12.6508 7.5399 12.3358 7.90699C12.0209 8.27407 11.789 8.70492 11.6561 9.17001C11.5232 9.63509 11.4924 10.1234 11.5659 10.6015" stroke="#5051F9" stroke-miterlimit="10"/>
<path d="M20.1274 10.6015C20.1394 10.4457 20.1514 10.2839 20.1514 10.1222C20.1514 8.72385 19.5959 7.38281 18.6071 6.39405C17.6184 5.4053 16.2773 4.84982 14.879 4.84982C13.4807 4.84982 12.1397 5.4053 11.1509 6.39405C10.1622 7.38281 9.60669 8.72385 9.60669 10.1222C9.60669 10.2839 9.61867 10.4457 9.63065 10.6015" stroke="#5051F9" stroke-miterlimit="10"/>
</svg>
